<svg id="Layer_1" data-name="Layer 1" xmlns="http://www.w3.org/2000/svg" viewBox="0 0 400 130">
  <defs>
    <style>
      .cls-1 {
        fill: #d1b750;
      }
    </style>
  </defs>
  <title>logo3</title>
  <g>
    <path d="M35.77,48.16v1.7c-5.4,6.7-11.6,13-15.4,15.69-3.2,2.4-4.8.5-5.2-.5-.7-1.7-.9-4.7-.7-8.49-1.6,3.8-3.8,7.89-6.7,10.09A5.46,5.46,0,0,1,4.28,68a2.77,2.77,0,0,1-1.3-.3C.88,66.55-.32,63.05.08,59c1.3-10.39,7.2-16.69,12.5-19,2.5-1.2,4.7-1.2,6.2-.2,2.9,1.8,3,7.19,3,11.09v1.2h-1.1v-1.2c0-3.4-.2-8.49-2.6-10.09-1.1-.8-2.8-.6-5,.2C8,43.17,4.88,49.46,3,59.26c-.6,3-.8,6.7.5,7.59.9.6,2.4-.1,3.5-.9,4.1-3.2,7.2-10.29,8.5-16.09l.4-1.9,1.5.2c.2,3.2-1.2,13.79-.8,16.49.4,2.2,2.1.8,3.2.1A112.56,112.56,0,0,0,35.77,48.16Z"/>
    <path d="M45.47,57.06c-.2-3-1.9-12.59-2.6-16.49a81.09,81.09,0,0,1-7.2,9.19v-1.7c3.3-3.9,6.2-7.59,6.8-8.89l-.5-3.7c-.2-2.3.7-5.7,2.3-6.6,2.2-1.1,3.2.8,3.3,2.2.2,2.6-1.5,5-2.6,6.79a.31.31,0,0,0-.2.1c.6,3.6,2.7,15.49,3.1,18,3.8-2,10.7-3.8,13.8-8v1.7c-2.6,3.2-11.5,6.1-13.6,7.19.4,3.7.2,8.59-4.3,10.49-1.8.7-5.2.9-6.7-.2C31.87,63.25,42.77,58.56,45.47,57.06Zm-7.8,9.29c1.6,1.2,4.5.7,5.8.2,3.6-1.5,2.2-5,2.2-8.39C43.17,59.46,34.27,63.65,37.67,66.35Zm6.4-31.48c.1.7.5,1.8.5,2,.6-1.5,2.2-3.6,2-5.6-.2-1.7-.8-1.7-1.7-1.3S43.87,32.88,44.07,34.87Z"/>
    <path d="M59.37,55.06c3.9-13,14-44.17,19.6-55.06l1,.3c-4.5,12.79-14,41.57-17.5,53.16,0,.1-.1.1-.7,2.3l1.2-1.9c3.2-5.5,7.7-10.59,12-12.59,7.8-3.5,9.1,2.8,6.7,9.49-1.4,4-3.2,7.49-3.2,11.59,0,2,.2,4.8,2.3,4.8,4.3,0,17.5-17.29,19-19.09v1.7c-1.1,1.3-14,18.49-19,18.49-3,0-4.9-3.3-4.9-5.9,0-4.5,2.2-8.69,3.4-12.49,2.4-6.79,2-10.39-3.8-7.59-6.8,3.2-13.1,14.79-14.8,17.79L58,67.75l-1-.3a52.67,52.67,0,0,1,2.1-11.19A11,11,0,0,0,59.37,55.06Z"/>
    <path d="M98.37,51.76c2.6-9.19,5-18,8.6-26.48,1.1-2.7,5.4-13,9.5-9.59,1.6,1.3,1.3,5.1,1.3,6.2-.8,12.09-11.6,22.28-16,26.78-1.5,4.2-4.7,15.49-.7,17.89,3.6,2.2,8.6-3.4,10.6-5.3,4.2-4.3,8.6-9.39,11.6-13V50c-4.6,5.2-7.9,9.09-11,12.09-2.6,2.6-8.3,8.39-12.6,5.1S97.07,56.06,98.37,51.76Zm4-5.6c6.6-6.6,13.5-14.59,14.2-24.68.2-2-.1-4.2-1.1-5.1-2.7-2.5-5.5,7.69-6.1,9.29C108,29.88,107.07,34.17,102.37,46.17Z"/>
    <path d="M130.87,37.77a3.64,3.64,0,0,1,4.2,1.1c1.3,1.7.7,4.7-.7,6.79-1.9,3.2-6.2,8.19-11.2,12.59-.7,14.79,9.8,7.69,15.6,1.8a112.11,112.11,0,0,0,10.8-12v1.7A137.76,137.76,0,0,1,139.47,61c-9.7,9.59-20.4,10.29-19.6-3.2C120.37,51.06,124,40.17,130.87,37.77Zm-4.4,6.5c-2.1,3.8-2.7,7.49-3.2,12.49a61,61,0,0,0,10.3-11.69c1-1.6,1.7-4.3.7-5.5a2.51,2.51,0,0,0-3-.7C129.47,39.47,127.57,42.27,126.47,44.27Z"/>
    <path d="M165.07,54.46c-3.3,5.9-8.6,11.19-13.1,12-1.8.3-3.2.3-4.2-.9-2.9-3.6-.6-13.29,3.2-20.38,1.9-3.6,3.2-7.39.5-8-.9-.1-2,.6-3,1.9-1.3,1.6-2.5,4.1-1.6,5.6l-1,.5c-1.1-1.8,0-5,1.8-6.89,1.5-1.7,3.1-2.4,4.2-2,3.6,1.2,1.7,7.49,1.2,9.29-2.2,7.29-6.6,16.89-4.3,19.39.5.6,1.5.7,3,.5,5.7-1.2,11.9-9.29,14.7-16.19a52.58,52.58,0,0,0,2.4-8.59l1.5.2c0-.1-1.7,8-2.2,10.69-.5,2.2-.7,4-1.3,6-3.7,13.69-6.6,27-10.1,38.57,8-2.2,14.4-.2,21.9,2.6,4,1.5,6.8,3,9.7,3.2,3.7.2,8.4-.8,10.8-4.2,1.9-2.6,1.9-9.59-2.2-8.59-2,.4-3.9,6.6-4.3,8.79l-1-.2s1.7-9,5.1-9.59c5.8-1.2,5.6,7.29,3.3,10.19-3,3.9-8.3,5-11.8,4.7-2.4-.2-5.5-1.3-9.9-3.2-7.2-3.1-14.1-4.9-21.8-2.4-11.3,39.27-28.9,36.67-29.8,25-.7-8.19,6.1-20.48,27-25.38C157.57,83.54,161.37,66.15,165.07,54.46Zm-37.4,67.45c.4,10.59,14.8,13,25.7-23.88C133.87,102.32,127.37,114.12,127.67,121.91Z"/>
    <path d="M234.66,48.16v1.7c-6.7,8.19-14.6,16.29-17.8,17.19a3.17,3.17,0,0,1-4-2c-2.3-6,2.3-16,4.2-22.28.7-2.5-1.1-4.3-3.5-4.5-6.4-.3-13.1,15.69-17,25.38a21.72,21.72,0,0,0-1.7,4.2l-1-.4a72.25,72.25,0,0,1,5.5-19.39,13.39,13.39,0,0,1,1.2.6L199,55c2.9-6.2,8.1-17.69,14.4-17.69,3.7,0,5.2,2.3,5.4,5.2.7,8.89-5.2,15.69-4.8,21.88.1,1.2.7,1.8,2.1,1.8C218.46,66.05,227.26,57.46,234.66,48.16Z"/>
    <path d="M257.06,48.16v1.7c-8.8,10.59-17,18.49-21,18.49-7.2-.2-5-11.19-4.1-15.09,1.5-5.8,4-9.79,5.8-14.19l1.3.1c-1.1,2.9-9.1,28.28-3.1,28.08C241.06,67.05,254.16,51.86,257.06,48.16Zm-17.3-16c.3-.8.9-1.5,1.7-1.3a1.7,1.7,0,0,1,.8,2.2,1.37,1.37,0,1,1-2.5-.9Z"/>
    <path d="M282.76,48.16v1.7c-6.4,7.89-13.9,15.19-17.2,16.89-5.4,2.7-8.6,1-10.3-3.6-2.9-8.09,2.6-22.48,11.5-25.68,3.8-1.4,7.2,1,7.7,3.2l-1.1.2c-.6-1.9-3.3-3.5-6.4-2.3-6.3,2.4-10,16.69-9.4,24.18.3,5.4,4.1,5.2,7.8,3C268.46,64.05,276.36,56.36,282.76,48.16Z"/>
    <path d="M294.36,37.67a5.46,5.46,0,0,1,4.2,2.7l-.9.6a4.23,4.23,0,0,0-3.7-2.2c-10.8-.7-16.7,35.27-2.9,27.68,5.2-2.9,10.9-11.89,7.9-23.28-.2-1,.9-.9,1.3-.2,3.1,4,7,14.59,14,5.2v1.7c-6.9,8.39-12.2-2.4-13.7-4.7,1.7,11-3.7,19-9.1,22-6.2,3.5-13.6.3-10.8-13.69C282,46.67,286.56,37,294.36,37.67Z"/>
    <path d="M312.86,51.76c2.6-9.19,5-18,8.6-26.48,1.1-2.7,5.4-13,9.5-9.59,1.6,1.3,1.3,5.1,1.3,6.2-.8,12.09-11.6,22.28-16.1,26.78-1.5,4.2-4.7,15.49-.7,17.89,3.6,2.2,8.6-3.4,10.6-5.3,4.2-4.3,8.6-9.39,11.6-13V50c-4.6,5.2-7.9,9.09-11,12.09-2.6,2.6-8.3,8.39-12.6,5.1S311.66,56.06,312.86,51.76Zm4.1-5.6c6.6-6.6,13.5-14.59,14.2-24.68.2-2-.1-4.2-1.1-5.1-2.7-2.5-5.5,7.69-6.1,9.29C322.56,29.88,321.66,34.17,317,46.17Z"/>
    <path d="M345.45,37.77a3.64,3.64,0,0,1,4.2,1.1c1.3,1.7.7,4.7-.7,6.79-1.9,3.2-6.2,8.19-11.2,12.59-.7,14.79,9.8,7.69,15.6,1.8a112.11,112.11,0,0,0,10.8-12v1.7A137.76,137.76,0,0,1,354.05,61c-9.7,9.59-20.4,10.29-19.6-3.2C335,51.06,338.55,40.17,345.45,37.77Zm-4.4,6.5c-2.1,3.8-2.7,7.49-3.2,12.49a61,61,0,0,0,10.3-11.69c1-1.6,1.7-4.3.7-5.5a2.51,2.51,0,0,0-3-.7C344,39.47,342.15,42.27,341.05,44.27Z"/>
  </g>
  <g>
    <path class="cls-1" d="M223.26,95.23c0-.2,0-.3.1-.3s.7.1.9.1a3,3,0,0,0,3.2-3.4c0-2.3-1.2-3.7-3.8-3.7a4.1,4.1,0,0,0-1.1.1c-.1,0-.2.2-.2.3,0,.6-.1,1.3-.1,5.8a53,53,0,0,0,.1,5.5c.1.6.2.8.8,1a6.53,6.53,0,0,0,1.7.2,1.69,1.69,0,0,1,0,1c-.8,0-2.7-.1-3.6-.1-1.1,0-2.8.1-3.4.1a1.39,1.39,0,0,1,0-.9c.6-.1,1.1-.1,1.4-.2.6-.2.7-.7.7-1.4V89c0-.9-.2-1.1-1-1.2-.3-.1-.7-.1-1.2-.2a1.34,1.34,0,0,1,.1-.9c.3,0,1.8.1,3,.1h4.3a5.19,5.19,0,0,1,3.3.9,4.42,4.42,0,0,1,1.6,3.4,4.61,4.61,0,0,1-2.7,4.3,5.54,5.54,0,0,1-2.7.6,3.08,3.08,0,0,1-1-.1A1,1,0,0,1,223.26,95.23Z"/>
    <path class="cls-1" d="M231.86,86.84c.5,0,1.6.1,3.3.1,1.9,0,2.7-.1,3.4-.1a1.39,1.39,0,0,1,0,.9,8.57,8.57,0,0,0-1.3.3c-.5.1-.6.4-.7,1.1v4.1c0,.1.1.2.2.3h7.7a.21.21,0,0,0,.2-.2v-4.5a.75.75,0,0,0-.5-.8,9.12,9.12,0,0,0-1.6-.3c-.2-.1-.1-.8,0-.9.6,0,2,.1,3.3.1s2.9-.1,3.3-.1a1.39,1.39,0,0,1,0,.9,4.88,4.88,0,0,0-1.4.3c-.6.2-.6.5-.7,1.3V94c0,2.2,0,4.7.1,5.6,0,.7.2.9.7,1.1a13.89,13.89,0,0,0,1.7.3,1.73,1.73,0,0,1-.1,1c-.6,0-2.3-.1-3.7-.1a30.23,30.23,0,0,0-3.3.1,1.69,1.69,0,0,1,0-1,11.61,11.61,0,0,0,1.6-.3c.4-.1.6-.4.6-1v-4.6s-.1-.2-.2-.2h-7.8l-.1.1v4.3c0,.8.2,1.1.9,1.2a15.7,15.7,0,0,0,1.6.3,1.73,1.73,0,0,1-.1,1c-.3,0-1.6-.1-3.5-.1s-3,.1-3.5.1a1.69,1.69,0,0,1,0-1c.6-.1,1-.1,1.4-.2.7-.2.8-.6.9-1.7v-10c0-.7-.1-.9-.7-1.1a15.7,15.7,0,0,0-1.6-.3C231.66,87.64,231.76,86.94,231.86,86.84Z"/>
    <path class="cls-1" d="M253.66,100.13a8.23,8.23,0,0,1-2.1-5.9,8.13,8.13,0,0,1,1.6-4.8,8.39,8.39,0,0,1,6.5-3,7.23,7.23,0,0,1,7.6,7.59,7.84,7.84,0,0,1-8,8.39A7.82,7.82,0,0,1,253.66,100.13Zm9,.1c1.5-1.1,2-3.1,2-5.3,0-2.7-.9-5.1-2.8-6.4a5,5,0,0,0-3.1-.9,3.94,3.94,0,0,0-2,.5c-1.7.9-2.6,3.1-2.6,5.5,0,2.6,1,5.3,3.1,6.6a5.2,5.2,0,0,0,2.9.7A3.39,3.39,0,0,0,262.66,100.23Z"/>
    <path class="cls-1" d="M280.06,101.92c-.7,0-2.2-.1-4.1-.1a34.7,34.7,0,0,0-3.9.1,1.69,1.69,0,0,1,0-1,16.46,16.46,0,0,0,1.8-.3c.8-.2.9-.7,1-1.8.1-2.6.1-6.4.1-10.59a.21.21,0,0,0-.2-.2H272a1.1,1.1,0,0,0-1.1.7,15.81,15.81,0,0,0-1,2.4c-.1.1-1-.1-1-.3a31.43,31.43,0,0,0,.5-4.3c0-.1.3-.2.4-.1a4.31,4.31,0,0,0,2,.3h9a4.18,4.18,0,0,0,2.5-.4c.1,0,.3.1.4.1-.2,1-.5,3.2-.6,4.5a2.06,2.06,0,0,1-1.1,0,8.75,8.75,0,0,0-.4-2.3,1,1,0,0,0-1-.7h-3.2c-.1,0-.1.1-.1.2,0,3.7,0,10.09.1,11.29a1,1,0,0,0,.8,1,12.29,12.29,0,0,0,2,.3C280.26,101.13,280.26,101.82,280.06,101.92Z"/>
    <path class="cls-1" d="M287.16,100.13a8.23,8.23,0,0,1-2.1-5.9,8.13,8.13,0,0,1,1.6-4.8,8.39,8.39,0,0,1,6.5-3,7.23,7.23,0,0,1,7.6,7.59,7.84,7.84,0,0,1-8,8.39A7.64,7.64,0,0,1,287.16,100.13Zm9,.1c1.5-1.1,2-3.1,2-5.3,0-2.7-.9-5.1-2.8-6.4a5,5,0,0,0-3.1-.9,3.94,3.94,0,0,0-2,.5c-1.7.9-2.6,3.1-2.6,5.5,0,2.6,1,5.3,3.1,6.6a5.2,5.2,0,0,0,2.9.7A3.39,3.39,0,0,0,296.16,100.23Z"/>
    <path class="cls-1" d="M318.26,101.33a19.32,19.32,0,0,1-5.5,1c-5.9,0-8.9-3.1-8.9-8a7.27,7.27,0,0,1,4.4-7,11.75,11.75,0,0,1,4.8-.9,35.78,35.78,0,0,1,5.1.6,30.48,30.48,0,0,0-.5,4.1,2.08,2.08,0,0,1-1.1.1c-.2-1.8-.5-2.6-1.2-3a6.21,6.21,0,0,0-3.3-.7c-3.7,0-5.4,2.7-5.4,6.4,0,4.1,2.2,7.29,6.6,7.29a2.81,2.81,0,0,0,1.5-.3,1.22,1.22,0,0,0,.4-.9,16.13,16.13,0,0,0,0-2.2,1.21,1.21,0,0,0-.8-1.3,17.79,17.79,0,0,0-2-.3c-.2-.1-.1-.9,0-1,.6,0,1.9.1,3.7.1a19.59,19.59,0,0,0,3-.1,1.7,1.7,0,0,1,0,1,2.35,2.35,0,0,0-.8.2c-.5.1-.6.5-.6,1.1v2.6c0,.3.1.5.7.8C318.46,100.83,318.36,101.33,318.26,101.33Z"/>
    <path class="cls-1" d="M321.26,86.84c.5,0,2.2.1,3.1.1h4.3c2.9,0,4.5,1.8,4.5,3.9a4.12,4.12,0,0,1-2.7,3.9.14.14,0,0,0,0,.2,34,34,0,0,0,3.8,4.9,3.48,3.48,0,0,0,2.2,1c.5,0,.9-.2,1.4-1.4,1.1-2.5,3.7-9.39,4.2-11,.2-.6.4-1.2.5-1.6h1.8a7.83,7.83,0,0,0,.5,1.4c.5,1.4,3.2,8.39,4.1,10.59.8,1.7,1,1.9,2.8,2.1a1.69,1.69,0,0,1,0,1c-.6,0-1.8-.1-3.2-.1s-3,.1-3.5.1a1.69,1.69,0,0,1,0-1,3.2,3.2,0,0,0,1.4-.3c.3-.1.3-.4.3-.6a38.12,38.12,0,0,0-1.3-3.6c0-.1-.2-.2-.3-.2h-4.4c-.1,0-.3.2-.3.2a24,24,0,0,0-1.1,3.4c0,.5.1.6.8.8.3.1.8.1,1.3.2a1.8,1.8,0,0,1-.1,1c-.5,0-.8-.1-3.1-.1-.6,0-2.9.1-3.6.1a3.5,3.5,0,0,1-3.1-1.5c-.9-1.1-2.3-3.2-3.2-4.6a.71.71,0,0,0-.6-.3H326l-.1.1v4.1c0,.7.2.9.9,1,.4.1.8.1,1.5.2.1.1.1.9-.1,1-.6,0-1.6-.1-3.6-.1-1.6,0-2.8.1-3.3.1a1.7,1.7,0,0,1,0-1,4.44,4.44,0,0,0,1.3-.2c.6-.1.8-.4.9-1.3,0-.5.1-3.6.1-4.9V89c0-.7-.2-1-.8-1.1a5.91,5.91,0,0,0-1.4-.2C321.06,87.64,321.06,86.94,321.26,86.84ZM326,88c-.1,0-.2.3-.2.4v5.8a.1.1,0,0,0,.1.1c2.3,0,2.9-.1,3.3-.3a2.65,2.65,0,0,0,1.4-2.6c0-2.2-1.1-3.5-3.7-3.5A3.45,3.45,0,0,0,326,88Zm15,6.7c0,.1,0,.2.1.2h3.5c.1,0,.2-.1.1-.2-.4-1.3-1.4-4-1.8-4.9h-.1C342.25,91,341.45,93.23,341,94.73Z"/>
    <path class="cls-1" d="M358.25,95.23c0-.2,0-.3.1-.3s.7.1.9.1a3,3,0,0,0,3.2-3.4c0-2.3-1.2-3.7-3.8-3.7a4.1,4.1,0,0,0-1.1.1c-.1,0-.2.2-.2.3,0,.6-.1,1.3-.1,5.8a53,53,0,0,0,.1,5.5c.1.6.2.8.8,1a6.53,6.53,0,0,0,1.7.2,1.69,1.69,0,0,1,0,1c-.8,0-2.7-.1-3.6-.1-1.1,0-2.8.1-3.4.1a1.39,1.39,0,0,1,0-.9c.6-.1,1.1-.1,1.4-.2.6-.2.7-.7.7-1.4V89c0-.9-.2-1.1-1-1.2-.3-.1-.7-.1-1.2-.2a1.34,1.34,0,0,1,.1-.9c.3,0,1.8.1,3,.1h4.3a5.19,5.19,0,0,1,3.3.9,4.42,4.42,0,0,1,1.6,3.4,4.61,4.61,0,0,1-2.7,4.3,5.54,5.54,0,0,1-2.7.6,3.08,3.08,0,0,1-1-.1A1,1,0,0,1,358.25,95.23Z"/>
    <path class="cls-1" d="M366.85,86.84c.5,0,1.6.1,3.3.1,1.9,0,2.7-.1,3.4-.1a1.39,1.39,0,0,1,0,.9,8.57,8.57,0,0,0-1.3.3c-.5.1-.6.4-.7,1.1v4.1c0,.1.1.2.2.3h7.7a.21.21,0,0,0,.2-.2v-4.5a.75.75,0,0,0-.5-.8,9.12,9.12,0,0,0-1.6-.3c-.2-.1-.1-.8,0-.9.6,0,2,.1,3.3.1s2.9-.1,3.3-.1a1.39,1.39,0,0,1,0,.9,4.88,4.88,0,0,0-1.4.3c-.6.2-.6.5-.7,1.3V94c0,2.2,0,4.7.1,5.6,0,.7.2.9.7,1.1a13.89,13.89,0,0,0,1.7.3,1.73,1.73,0,0,1-.1,1c-.6,0-2.3-.1-3.7-.1a30.23,30.23,0,0,0-3.3.1,1.69,1.69,0,0,1,0-1,11.61,11.61,0,0,0,1.6-.3c.4-.1.6-.4.6-1v-4.6s-.1-.2-.2-.2h-7.8l-.1.1v4.3c0,.8.2,1.1.9,1.2a15.7,15.7,0,0,0,1.6.3,1.73,1.73,0,0,1-.1,1c-.3,0-1.6-.1-3.5-.1s-3,.1-3.5.1a1.69,1.69,0,0,1,0-1c.6-.1,1-.1,1.4-.2.7-.2.8-.6.9-1.7v-10c0-.7-.1-.9-.7-1.1a15.7,15.7,0,0,0-1.6-.3C366.65,87.64,366.65,86.94,366.85,86.84Z"/>
    <path class="cls-1" d="M384.75,86.84c.5,0,2,.1,3.1.1a25.4,25.4,0,0,0,3-.1c.1.1.2.8,0,.9s-.8.1-.9.2c-.3.1-.2.3-.1.6.6,1.3,2.4,4.8,2.9,5.6h.2c.8-1.3,2.5-4.4,2.9-5.3.1-.4.2-.7-.4-.8a12.3,12.3,0,0,0-1.3-.2c-.1-.1,0-.9.1-.9.8,0,2,.1,2.9.1a18.65,18.65,0,0,0,2.7-.1c.2,0,.2.8,0,.9-.4.1-.7.1-1,.2-.7.2-1.1.4-1.9,1.6a61.94,61.94,0,0,0-3.3,5.7,2.92,2.92,0,0,0-.2.9v3c0,1.1.2,1.4.8,1.6.4.1,1.1.2,1.8.3a1.41,1.41,0,0,1-.1.9c-.7,0-2-.1-3.6-.1-2,0-3.3.1-3.9.1-.1-.1-.1-.9,0-.9.7-.1,1.4-.2,1.9-.3.7-.2.8-.5.8-1.3v-2.8a6,6,0,0,0-.2-1.2c-.5-1.1-1.9-3.7-2.9-5.6-.8-1.5-1.1-1.7-2.1-2-.3-.1-.6-.1-1.1-.2C384.55,87.64,384.65,86.94,384.75,86.84Z"/>
  </g>
</svg>
